<svg id="Calque_1" data-name="Calque 1" xmlns="http://www.w3.org/2000/svg" xmlns:xlink="http://www.w3.org/1999/xlink" viewBox="0 0 641.74 125.46"><defs><style>.cls-1{fill:url(#Dégradé_sans_nom);}.cls-2{fill:url(#Dégradé_sans_nom_2);}.cls-3{fill:url(#Dégradé_sans_nom_3);}.cls-4{fill:url(#Dégradé_sans_nom_4);}.cls-5{fill:#fff;}</style><linearGradient id="Dégradé_sans_nom" x1="84.34" y1="137.6" x2="176.64" y2="137.6" gradientTransform="matrix(1, 0, 0, -1, -42.52, 168.97)" gradientUnits="userSpaceOnUse"><stop offset="0" stop-color="#f4ab11"/><stop offset="0.17" stop-color="#ee7c25"/><stop offset="0.35" stop-color="#e95536"/><stop offset="0.53" stop-color="#e43543"/><stop offset="0.69" stop-color="#e11f4c"/><stop offset="0.86" stop-color="#e01252"/><stop offset="1" stop-color="#df0d54"/></linearGradient><linearGradient id="Dégradé_sans_nom_2" x1="92.76" y1="54.72" x2="162.12" y2="81.35" gradientTransform="matrix(1, 0, 0, -1, -42.52, 168.97)" gradientUnits="userSpaceOnUse"><stop offset="0.29" stop-color="#88fc91"/><stop offset="0.44" stop-color="#72eda0"/><stop offset="0.65" stop-color="#59dcb0"/><stop offset="0.84" stop-color="#49d2ba"/><stop offset="1" stop-color="#44cebe"/></linearGradient><linearGradient id="Dégradé_sans_nom_3" x1="42.16" y1="168.6" x2="84.7" y2="127.52" gradientTransform="matrix(1, 0, 0, -1, -42.52, 168.97)" gradientUnits="userSpaceOnUse"><stop offset="0.16" stop-color="#098dd7"/><stop offset="0.48" stop-color="#206dbe"/><stop offset="0.84" stop-color="#3d449e"/></linearGradient><linearGradient id="Dégradé_sans_nom_4" x1="37.1" y1="54.31" x2="87.54" y2="73.68" xlink:href="#Dégradé_sans_nom_3"/></defs><polygon class="cls-1" points="134.12 0 100.96 33.16 71.39 62.73 71.39 62.73 41.82 33.16 74.98 0 134.12 0"/><polygon class="cls-2" points="134.12 125.45 74.98 125.45 41.82 92.3 71.39 62.73 71.39 62.73 134.12 125.45"/><rect class="cls-3" width="41.82" height="41.82"/><rect class="cls-4" y="83.64" width="41.82" height="41.82"/><polygon class="cls-5" points="219.45 49.26 203.17 49.26 184.43 72.96 184.43 23.56 170.41 23.56 170.41 100.98 184.43 100.98 184.43 75.75 203.28 100.98 220.41 100.98 199.14 73.86 219.45 49.26"/><path class="cls-5" d="M302.39,92.65a28.35,28.35,0,0,0-14.19-3.53,27.85,27.85,0,0,0-14.08,3.59,26.86,26.86,0,0,0-9.9,9.64A25.91,25.91,0,0,0,260.58,116a26.61,26.61,0,0,0,13.54,23.61,27.85,27.85,0,0,0,14.08,3.59,28.24,28.24,0,0,0,14.24-3.59A26.69,26.69,0,0,0,316,116a26,26,0,0,0-3.69-13.71A26.86,26.86,0,0,0,302.39,92.65Zm-2.46,30.62a12.61,12.61,0,0,1-4.71,4.93,13.46,13.46,0,0,1-7,1.82,12.94,12.94,0,0,1-6.85-1.82,12.56,12.56,0,0,1-4.66-4.93,16.31,16.31,0,0,1,0-14.34,12.27,12.27,0,0,1,4.66-4.87,13.29,13.29,0,0,1,18.47,4.87,14.22,14.22,0,0,1,1.77,7.17A15.18,15.18,0,0,1,299.93,123.27Z" transform="translate(-42.52 -41.03)"/><path class="cls-5" d="M393.24,91.63a23.34,23.34,0,0,0-20.88.11A20.43,20.43,0,0,0,366,97a18.06,18.06,0,0,0-6.05-5.37,19.89,19.89,0,0,0-9.74-2.41A21.16,21.16,0,0,0,340,91.63a18.26,18.26,0,0,0-4.28,3.16v-4.5h-14V142h14V111.6a9.66,9.66,0,0,1,1.34-5.25,8.87,8.87,0,0,1,3.53-3.27,10.74,10.74,0,0,1,5-1.12,10,10,0,0,1,7,2.52,9,9,0,0,1,2.78,7V142h14.13V111.6a9.66,9.66,0,0,1,1.34-5.25,8.87,8.87,0,0,1,3.53-3.27,11,11,0,0,1,5.09-1.12,9.82,9.82,0,0,1,6.85,2.52,9,9,0,0,1,2.78,7V142H403.3V109.35a20.42,20.42,0,0,0-2.73-10.81A18.38,18.38,0,0,0,393.24,91.63Z" transform="translate(-42.52 -41.03)"/><path class="cls-5" d="M452.94,92.75A24,24,0,0,0,440,89.22,21.4,21.4,0,0,0,430,91.58a19.88,19.88,0,0,0-4.6,3.32V90.3h-14v73.45h13.92V137.5a19.35,19.35,0,0,0,4.71,3.34A22.18,22.18,0,0,0,440,143.09a23.88,23.88,0,0,0,12.85-3.53,25.1,25.1,0,0,0,8.94-9.64,28.57,28.57,0,0,0,3.26-13.71,29.21,29.21,0,0,0-3.21-13.81A24.61,24.61,0,0,0,452.94,92.75Zm-4,30.57a12.74,12.74,0,0,1-4.55,5,12.36,12.36,0,0,1-6.75,1.82,13.28,13.28,0,0,1-6.91-1.82,11.58,11.58,0,0,1-4.6-5,16.08,16.08,0,0,1-1.55-7.23,14.94,14.94,0,0,1,1.66-7.17,12.84,12.84,0,0,1,4.6-4.93,13.5,13.5,0,0,1,13.54,0,12.87,12.87,0,0,1,4.55,4.93,14.94,14.94,0,0,1,1.66,7.17A15.12,15.12,0,0,1,449,123.32Z" transform="translate(-42.52 -41.03)"/><path class="cls-5" d="M509.36,92.65a28.35,28.35,0,0,0-14.19-3.53,27.85,27.85,0,0,0-14.08,3.59,26.86,26.86,0,0,0-9.9,9.64A25.91,25.91,0,0,0,467.55,116a26.61,26.61,0,0,0,13.54,23.61,27.82,27.82,0,0,0,14.08,3.59,28.24,28.24,0,0,0,14.24-3.59A26.69,26.69,0,0,0,523,116a26,26,0,0,0-3.69-13.71A26.71,26.71,0,0,0,509.36,92.65Zm-2.46,30.62a12.61,12.61,0,0,1-4.71,4.93,13.46,13.46,0,0,1-7,1.82,13,13,0,0,1-6.85-1.82,12.56,12.56,0,0,1-4.66-4.93,16.31,16.31,0,0,1,0-14.34,12.27,12.27,0,0,1,4.66-4.87,13.29,13.29,0,0,1,18.47,4.87,14.22,14.22,0,0,1,1.77,7.17A15.06,15.06,0,0,1,506.9,123.27Z" transform="translate(-42.52 -41.03)"/><polygon class="cls-5" points="482.74 61.47 505 61.47 480.71 92.95 480.71 100.98 524.5 100.98 524.5 88.77 500.94 88.77 525.15 57.29 525.15 49.26 482.74 49.26 482.74 61.47"/><rect class="cls-5" x="531.03" y="49.26" width="14.24" height="51.72"/><path class="cls-5" d="M580.73,65.88a7.48,7.48,0,0,0-5.67,2.36,8.34,8.34,0,0,0,0,11.4,8.21,8.21,0,0,0,11.4,0,8.51,8.51,0,0,0,0-11.4A7.46,7.46,0,0,0,580.73,65.88Z" transform="translate(-42.52 -41.03)"/><polygon class="cls-5" points="576.11 27.74 562.08 27.74 562.08 49.26 549.98 49.26 549.98 61.57 562.08 61.57 562.08 100.98 576.11 100.98 576.11 61.57 588.21 61.57 588.21 49.26 576.11 49.26 576.11 27.74"/><path class="cls-5" d="M681.7,98.75a18.18,18.18,0,0,0-7.07-7,20.9,20.9,0,0,0-10.39-2.52,21.15,21.15,0,0,0-10.49,2.57,18.77,18.77,0,0,0-4.28,3.26V64.59h-14V142h14V112.35a11,11,0,0,1,1.34-5.41,9.11,9.11,0,0,1,3.69-3.69,10.94,10.94,0,0,1,5.35-1.28,10,10,0,0,1,7.39,2.89,10.14,10.14,0,0,1,2.89,7.49V142h14.13V109.14A20.5,20.5,0,0,0,681.7,98.75Z" transform="translate(-42.52 -41.03)"/></svg>