<?xml version="1.0" encoding="utf-8"?>
<!-- Generator: Adobe Illustrator 27.3.1, SVG Export Plug-In . SVG Version: 6.00 Build 0)  -->
<svg version="1.1" id="Calque_1" xmlns="http://www.w3.org/2000/svg" xmlns:xlink="http://www.w3.org/1999/xlink" x="0px" y="0px"
	 viewBox="0 0 726.79 207.51" style="enable-background:new 0 0 726.79 207.51;" xml:space="preserve">
<style type="text/css">
	.st0{fill:#0B1143;}
	.st1{fill:url(#SVGID_1_);}
	.st2{fill:url(#SVGID_00000018950561225855492810000014266240495488412839_);}
	.st3{opacity:0.55;fill:url(#SVGID_00000119803379698631870000000018396243905021171336_);}
	.st4{opacity:0.55;fill:url(#SVGID_00000175283047811427087760000004166512422570465421_);}
	.st5{fill:url(#SVGID_00000010992570515112634970000012718226087933343141_);}
	.st6{opacity:0.55;fill:url(#SVGID_00000132058868355603798110000006933069224382033597_);}
	.st7{fill:url(#SVGID_00000166637840728833221140000002794251236424088506_);}
	.st8{fill:url(#SVGID_00000107572519075290320050000018298754756731455932_);}
	.st9{fill:url(#SVGID_00000067924814840990364550000004449604969621205179_);}
	.st10{fill:url(#SVGID_00000170989133988694224120000008148529138494124972_);}
	.st11{fill:url(#SVGID_00000034782086681637066140000017716303663047223168_);}
	.st12{fill:url(#SVGID_00000045591010554585664900000002701287469302689182_);}
	.st13{fill:url(#SVGID_00000061449631888769308020000001041445926888172442_);}
	.st14{fill:url(#SVGID_00000159443223911471234870000018388479860123229887_);}
	.st15{fill:url(#SVGID_00000164489715095944641320000005418598522328537279_);}
	.st16{opacity:0.55;fill:url(#SVGID_00000174602514912459681540000001688086289842471825_);}
	.st17{fill:#FFFFFF;}
	.st18{fill:#383838;}
	.st19{fill:url(#SVGID_00000069383322687965113790000015824352769471642551_);}
	.st20{fill:url(#SVGID_00000107564015716431590470000004972656963342886334_);}
	.st21{fill:url(#SVGID_00000060017345656509805560000004844000775695609274_);}
	.st22{fill:url(#SVGID_00000043454564671673355860000003888662944101122984_);}
	.st23{fill:url(#SVGID_00000045602164553010083160000009975005241977732239_);}
	.st24{fill:url(#SVGID_00000147910451618569439090000002051896191807930527_);}
	.st25{fill:url(#SVGID_00000033350757008703071290000012605151278088103820_);}
	.st26{fill:url(#SVGID_00000150793325797073517920000013044436542807243409_);}
	.st27{fill:url(#SVGID_00000050663583647206710700000001965059801243474612_);}
	.st28{fill:url(#SVGID_00000082354058174388457820000015441193846240761513_);}
	.st29{fill:url(#SVGID_00000000915917987995592090000002901571465617151405_);}
	.st30{fill:url(#SVGID_00000183932089338592675840000007695532558633299383_);}
	.st31{fill:url(#SVGID_00000085240675865409122190000000082037250522734996_);}
	.st32{fill:url(#SVGID_00000093867691994136416150000014988176306157873557_);}
	.st33{fill:url(#SVGID_00000015314067738613007050000001615048600250535603_);}
	.st34{fill:url(#SVGID_00000114796372207868145520000001660676936085165441_);}
	.st35{fill:url(#SVGID_00000179609881840486419190000005827554602545291402_);}
	.st36{fill:url(#SVGID_00000162321077684947838010000014259809212767354243_);}
	.st37{fill:url(#SVGID_00000096764313424399321660000015727840591890833817_);}
	.st38{fill:url(#SVGID_00000116212352553695158390000000683681672482440844_);}
	.st39{fill:url(#SVGID_00000024704394234574637320000018211086782222417552_);}
	.st40{fill:url(#SVGID_00000074418444529993561570000002154378317541033634_);}
	.st41{fill:url(#SVGID_00000003807554398841345640000017482128412280246180_);}
	.st42{fill:url(#SVGID_00000021100067093757599380000008881801588875782807_);}
	.st43{fill:url(#SVGID_00000045620716435992719690000016423364907306217905_);}
	.st44{fill:url(#SVGID_00000062150437052556882960000002912763640938975881_);}
	.st45{fill:url(#SVGID_00000181062790788825890850000017736675110276816009_);}
	.st46{fill:url(#SVGID_00000161591513717850530410000011086245362480125832_);}
	.st47{fill:url(#SVGID_00000179633637627774934030000003585847632785379761_);}
	.st48{fill:url(#SVGID_00000005227130333881907050000009526711006394332344_);}
	.st49{fill:url(#SVGID_00000180361953036143408700000006244205926272970911_);}
	.st50{fill:url(#SVGID_00000060718402954082101680000002979346509275422101_);}
	.st51{fill:url(#SVGID_00000170991973839440479530000007993456638124705668_);}
	.st52{fill:url(#SVGID_00000116214749860995497120000018095970716539584150_);}
	.st53{fill:url(#SVGID_00000157990751882195264830000000615486495836185501_);}
	.st54{fill:url(#SVGID_00000128465194640263061360000000877290682198170240_);}
	.st55{fill:url(#SVGID_00000029724483939228803030000015812478989935006377_);}
	.st56{fill:url(#SVGID_00000029739524785494797590000002328072608215132064_);}
	.st57{fill:url(#SVGID_00000041984484792003117800000007710699335028913539_);}
	.st58{fill:url(#SVGID_00000013155524931403510590000001988028728166254231_);}
</style>
<g>
	<linearGradient id="SVGID_1_" gradientUnits="userSpaceOnUse" x1="84.339" y1="72.3923" x2="176.6407" y2="72.3923">
		<stop  offset="0" style="stop-color:#F4AB11"/>
		<stop  offset="0.1738" style="stop-color:#EE7C25"/>
		<stop  offset="0.351" style="stop-color:#E95536"/>
		<stop  offset="0.5258" style="stop-color:#E43543"/>
		<stop  offset="0.6949" style="stop-color:#E11F4C"/>
		<stop  offset="0.8559" style="stop-color:#E01252"/>
		<stop  offset="1" style="stop-color:#DF0D54"/>
	</linearGradient>
	<polygon class="st1" points="176.64,41.03 143.48,74.19 113.91,103.76 113.91,103.76 84.34,74.19 117.5,41.03 	"/>
	
		<linearGradient id="SVGID_00000167386179704754062890000018125580329494592438_" gradientUnits="userSpaceOnUse" x1="92.7657" y1="155.2778" x2="162.1193" y2="128.6554">
		<stop  offset="0.2877" style="stop-color:#88FC91"/>
		<stop  offset="0.4369" style="stop-color:#72EDA0"/>
		<stop  offset="0.6502" style="stop-color:#59DCB0"/>
		<stop  offset="0.8442" style="stop-color:#49D2BA"/>
		<stop  offset="1" style="stop-color:#44CEBE"/>
	</linearGradient>
	<polygon style="fill:url(#SVGID_00000167386179704754062890000018125580329494592438_);" points="176.64,166.48 117.5,166.48 
		84.34,133.33 113.91,103.76 113.91,103.76 	"/>
	
		<linearGradient id="SVGID_00000137833116654603264880000001492431683334751895_" gradientUnits="userSpaceOnUse" x1="42.1612" y1="41.3982" x2="84.6975" y2="82.475">
		<stop  offset="0.1602" style="stop-color:#098DD7"/>
		<stop  offset="0.4774" style="stop-color:#206DBE"/>
		<stop  offset="0.8369" style="stop-color:#3D449E"/>
	</linearGradient>
	
		<rect x="42.52" y="41.03" style="fill:url(#SVGID_00000137833116654603264880000001492431683334751895_);" width="41.82" height="41.82"/>
	
		<linearGradient id="SVGID_00000106142207835364611890000010983273606820656297_" gradientUnits="userSpaceOnUse" x1="37.0984" y1="155.6827" x2="87.5382" y2="136.3206">
		<stop  offset="0.1602" style="stop-color:#098DD7"/>
		<stop  offset="0.4774" style="stop-color:#206DBE"/>
		<stop  offset="0.8369" style="stop-color:#3D449E"/>
	</linearGradient>
	
		<rect x="42.52" y="124.67" style="fill:url(#SVGID_00000106142207835364611890000010983273606820656297_);" width="41.82" height="41.82"/>
	<g>
		<polygon class="st17" points="261.97,90.29 245.69,90.29 226.95,113.99 226.95,64.59 212.93,64.59 212.93,142.01 226.95,142.01 
			226.95,116.78 245.8,142.01 262.93,142.01 241.66,114.89 		"/>
		<path class="st17" d="M302.39,92.65c-4.18-2.36-8.91-3.53-14.19-3.53c-5.21,0-9.9,1.2-14.08,3.59c-4.18,2.39-7.48,5.6-9.9,9.64
			c-2.43,4.03-3.64,8.58-3.64,13.65c0,5.14,1.21,9.76,3.64,13.87c2.43,4.11,5.73,7.35,9.9,9.74c4.18,2.39,8.87,3.59,14.08,3.59
			c5.28,0,10.03-1.19,14.24-3.59c4.21-2.39,7.53-5.66,9.96-9.8c2.43-4.14,3.64-8.74,3.64-13.81c0-5.07-1.23-9.64-3.69-13.71
			C309.88,98.21,306.56,95,302.39,92.65z M299.93,123.27c-1.11,2.07-2.68,3.71-4.71,4.93c-2.04,1.21-4.37,1.82-7.01,1.82
			c-2.57,0-4.86-0.61-6.85-1.82c-2-1.21-3.55-2.85-4.66-4.93c-1.11-2.07-1.66-4.46-1.66-7.17c0-2.71,0.55-5.1,1.66-7.17
			c1.11-2.07,2.66-3.69,4.66-4.87c2-1.18,4.28-1.77,6.85-1.77c2.64,0,4.94,0.59,6.91,1.77c1.96,1.18,3.53,2.8,4.71,4.87
			c1.18,2.07,1.77,4.46,1.77,7.17C301.59,118.81,301.03,121.2,299.93,123.27z"/>
		<path class="st17" d="M393.24,91.63c-3.07-1.61-6.53-2.41-10.39-2.41c-3.86,0-7.35,0.84-10.49,2.52c-2.5,1.33-4.62,3.09-6.37,5.26
			c-1.6-2.23-3.61-4.03-6.05-5.37c-2.93-1.61-6.18-2.41-9.74-2.41c-3.78,0-7.17,0.8-10.17,2.41c-1.61,0.86-3.03,1.92-4.28,3.16v-4.5
			h-14.03v51.72h14.03V111.6c0-2.07,0.44-3.82,1.34-5.25c0.89-1.43,2.07-2.52,3.53-3.27c1.46-0.75,3.12-1.12,4.98-1.12
			c2.78,0,5.1,0.84,6.96,2.52c1.86,1.68,2.78,4.02,2.78,7.01v30.52h14.13V111.6c0-2.07,0.44-3.82,1.34-5.25
			c0.89-1.43,2.07-2.52,3.53-3.27c1.46-0.75,3.16-1.12,5.09-1.12c2.71,0,5,0.84,6.85,2.52c1.86,1.68,2.78,4.02,2.78,7.01v30.52
			h14.24v-32.66c0-4.21-0.91-7.82-2.73-10.81C398.76,95.54,396.31,93.24,393.24,91.63z"/>
		<path class="st17" d="M452.94,92.75c-3.82-2.36-8.12-3.53-12.9-3.53c-3.71,0-7.07,0.79-10.07,2.36c-1.74,0.91-3.26,2.03-4.6,3.32
			v-4.6h-14.03v73.45h13.92v-26.25c1.37,1.31,2.92,2.44,4.71,3.34c3,1.5,6.35,2.25,10.07,2.25c4.78,0,9.06-1.18,12.85-3.53
			c3.78-2.36,6.76-5.57,8.94-9.64c2.18-4.07,3.26-8.64,3.26-13.71c0-5.14-1.07-9.74-3.21-13.81
			C459.73,98.32,456.75,95.11,452.94,92.75z M448.97,123.32c-1.11,2.11-2.62,3.77-4.55,4.98c-1.93,1.22-4.18,1.82-6.75,1.82
			s-4.87-0.61-6.91-1.82c-2.04-1.21-3.57-2.87-4.6-4.98c-1.04-2.1-1.55-4.51-1.55-7.23c0-2.71,0.55-5.1,1.66-7.17
			c1.11-2.07,2.64-3.71,4.6-4.93c1.96-1.21,4.19-1.82,6.69-1.82c2.64,0,4.93,0.61,6.85,1.82c1.93,1.21,3.44,2.86,4.55,4.93
			c1.11,2.07,1.66,4.46,1.66,7.17C450.63,118.81,450.08,121.22,448.97,123.32z"/>
		<path class="st17" d="M509.36,92.65c-4.18-2.36-8.91-3.53-14.19-3.53c-5.21,0-9.9,1.2-14.08,3.59c-4.18,2.39-7.48,5.6-9.9,9.64
			c-2.43,4.03-3.64,8.58-3.64,13.65c0,5.14,1.21,9.76,3.64,13.87c2.43,4.11,5.73,7.35,9.9,9.74c4.17,2.39,8.87,3.59,14.08,3.59
			c5.28,0,10.03-1.19,14.24-3.59c4.21-2.39,7.53-5.66,9.96-9.8c2.43-4.14,3.64-8.74,3.64-13.81c0-5.07-1.23-9.64-3.69-13.71
			C516.86,98.21,513.54,95,509.36,92.65z M506.9,123.27c-1.11,2.07-2.68,3.71-4.71,4.93c-2.04,1.21-4.37,1.82-7.01,1.82
			c-2.57,0-4.85-0.61-6.85-1.82c-2-1.21-3.55-2.85-4.66-4.93c-1.11-2.07-1.66-4.46-1.66-7.17c0-2.71,0.55-5.1,1.66-7.17
			c1.11-2.07,2.66-3.69,4.66-4.87c2-1.18,4.28-1.77,6.85-1.77c2.64,0,4.94,0.59,6.91,1.77c1.96,1.18,3.53,2.8,4.71,4.87
			c1.18,2.07,1.77,4.46,1.77,7.17C508.56,118.81,508.01,121.2,506.9,123.27z"/>
		<polygon class="st17" points="525.26,102.5 547.52,102.5 523.23,133.98 523.23,142.01 567.02,142.01 567.02,129.8 543.46,129.8 
			567.67,98.32 567.67,90.29 525.26,90.29 		"/>
		<rect x="573.55" y="90.29" class="st17" width="14.24" height="51.72"/>
		<path class="st17" d="M580.73,65.88c-2.29,0-4.18,0.79-5.67,2.36c-1.5,1.57-2.25,3.46-2.25,5.67c0,2.29,0.75,4.2,2.25,5.73
			c1.5,1.54,3.39,2.3,5.67,2.3c2.36,0,4.26-0.77,5.73-2.3c1.46-1.53,2.19-3.44,2.19-5.73c0-2.21-0.73-4.1-2.19-5.67
			C584.99,66.66,583.08,65.88,580.73,65.88z"/>
		<polygon class="st17" points="618.63,68.77 604.6,68.77 604.6,90.29 592.5,90.29 592.5,102.6 604.6,102.6 604.6,142.01 
			618.63,142.01 618.63,102.6 630.73,102.6 630.73,90.29 618.63,90.29 		"/>
		<path class="st17" d="M681.7,98.75c-1.71-3-4.07-5.34-7.07-7.01c-3-1.68-6.46-2.52-10.39-2.52c-3.93,0-7.43,0.86-10.49,2.57
			c-1.62,0.9-3.04,2-4.28,3.26V64.59h-14.03v77.42h14.03v-29.66c0-2,0.45-3.8,1.34-5.41c0.89-1.61,2.12-2.84,3.69-3.69
			c1.57-0.86,3.35-1.28,5.35-1.28c3,0,5.46,0.96,7.39,2.89c1.93,1.93,2.89,4.43,2.89,7.49v29.66h14.13v-32.87
			C684.27,105.21,683.41,101.75,681.7,98.75z"/>
	</g>
</g>
</svg>
