<?xml version="1.0" encoding="utf-8"?>
<!-- Generator: Adobe Illustrator 24.2.3, SVG Export Plug-In . SVG Version: 6.00 Build 0)  -->
<svg version="1.1" id="Calque_1" xmlns="http://www.w3.org/2000/svg" xmlns:xlink="http://www.w3.org/1999/xlink" x="0px" y="0px"
	 viewBox="0 0 641.8 163.5" style="enable-background:new 0 0 641.8 163.5;" xml:space="preserve">
<style type="text/css">
	.st0{fill:url(#SVGID_1_);}
	.st1{fill:url(#SVGID_2_);}
	.st2{fill:url(#SVGID_3_);}
	.st3{fill:url(#SVGID_4_);}
	.st4{fill:#0B1143;}
</style>
<g>
	
		<linearGradient id="SVGID_1_" gradientUnits="userSpaceOnUse" x1="41.82" y1="115.605" x2="134.12" y2="115.605" gradientTransform="matrix(1 0 0 -1 0 166)">
		<stop  offset="0" style="stop-color:#F4AB11"/>
		<stop  offset="0.1738" style="stop-color:#EE7C25"/>
		<stop  offset="0.351" style="stop-color:#E95536"/>
		<stop  offset="0.5258" style="stop-color:#E43543"/>
		<stop  offset="0.6949" style="stop-color:#E11F4C"/>
		<stop  offset="0.8559" style="stop-color:#E01252"/>
		<stop  offset="1" style="stop-color:#DF0D54"/>
	</linearGradient>
	<polygon class="st0" points="134.1,19 101,52.2 71.4,81.8 71.4,81.8 41.8,52.2 75,19 	"/>
	
		<linearGradient id="SVGID_2_" gradientUnits="userSpaceOnUse" x1="50.2446" y1="32.7231" x2="119.5999" y2="59.3462" gradientTransform="matrix(1 0 0 -1 0 166)">
		<stop  offset="0.2877" style="stop-color:#88FC91"/>
		<stop  offset="0.4369" style="stop-color:#72EDA0"/>
		<stop  offset="0.6502" style="stop-color:#59DCB0"/>
		<stop  offset="0.8442" style="stop-color:#49D2BA"/>
		<stop  offset="1" style="stop-color:#44CEBE"/>
	</linearGradient>
	<polygon class="st1" points="134.1,144.5 75,144.5 41.8,111.3 71.4,81.8 71.4,81.8 	"/>
	
		<linearGradient id="SVGID_3_" gradientUnits="userSpaceOnUse" x1="-0.3585" y1="146.5988" x2="42.1785" y2="105.5213" gradientTransform="matrix(1 0 0 -1 0 166)">
		<stop  offset="0.1602" style="stop-color:#098DD7"/>
		<stop  offset="0.4774" style="stop-color:#206DBE"/>
		<stop  offset="0.8369" style="stop-color:#3D449E"/>
	</linearGradient>
	<rect y="19" class="st2" width="41.8" height="41.8"/>
	
		<linearGradient id="SVGID_4_" gradientUnits="userSpaceOnUse" x1="-5.4199" y1="32.3129" x2="45.0208" y2="51.6753" gradientTransform="matrix(1 0 0 -1 0 166)">
		<stop  offset="0.1602" style="stop-color:#098DD7"/>
		<stop  offset="0.4774" style="stop-color:#206DBE"/>
		<stop  offset="0.8369" style="stop-color:#3D449E"/>
	</linearGradient>
	<rect y="102.7" class="st3" width="41.8" height="41.8"/>
	<g>
		<g>
			<polygon class="st4" points="219.4,68.3 203.2,68.3 184.4,92 184.4,42.6 170.4,42.6 170.4,120 184.4,120 184.4,94.8 203.3,120 
				220.4,120 199.1,92.9 			"/>
			<path class="st4" d="M259.9,70.7c-4.2-2.4-8.9-3.5-14.2-3.5c-5.2,0-9.9,1.2-14.1,3.6s-7.5,5.6-9.9,9.6c-2.4,4-3.6,8.6-3.6,13.7
				c0,5.1,1.2,9.8,3.6,13.9c2.4,4.1,5.7,7.4,9.9,9.7c4.2,2.4,8.9,3.6,14.1,3.6c5.3,0,10-1.2,14.2-3.6c4.2-2.4,7.5-5.7,10-9.8
				s3.6-8.7,3.6-13.8s-1.2-9.6-3.7-13.7C267.4,76.2,264,73,259.9,70.7z M257.4,101.3c-1.1,2.1-2.7,3.7-4.7,4.9c-2,1.2-4.4,1.8-7,1.8
				c-2.6,0-4.9-0.6-6.9-1.8c-2-1.2-3.5-2.8-4.7-4.9c-1.1-2.1-1.7-4.5-1.7-7.2s0.5-5.1,1.7-7.2c1.1-2.1,2.7-3.7,4.7-4.9
				s4.3-1.8,6.9-1.8c2.6,0,4.9,0.6,6.9,1.8c2,1.2,3.5,2.8,4.7,4.9s1.8,4.5,1.8,7.2C259.1,96.8,258.5,99.2,257.4,101.3z"/>
			<path class="st4" d="M350.7,69.6c-3.1-1.6-6.5-2.4-10.4-2.4c-3.9,0-7.4,0.8-10.5,2.5c-2.5,1.3-4.6,3.1-6.4,5.3
				c-1.6-2.2-3.6-4-6-5.4c-2.9-1.6-6.2-2.4-9.7-2.4c-3.8,0-7.2,0.8-10.2,2.4c-1.6,0.9-3,1.9-4.3,3.2v-4.5h-14V120h14V89.6
				c0-2.1,0.4-3.8,1.3-5.3c0.9-1.4,2.1-2.5,3.5-3.3s3.1-1.1,5-1.1c2.8,0,5.1,0.8,7,2.5s2.8,4,2.8,7V120H327V89.6
				c0-2.1,0.4-3.8,1.3-5.3c0.9-1.4,2.1-2.5,3.5-3.3s3.2-1.1,5.1-1.1c2.7,0,5,0.8,6.9,2.5c1.9,1.7,2.8,4,2.8,7V120h14.2V87.3
				c0-4.2-0.9-7.8-2.7-10.8C356.2,73.5,353.8,71.2,350.7,69.6z"/>
			<path class="st4" d="M410.4,70.8c-3.8-2.4-8.1-3.5-12.9-3.5c-3.7,0-7.1,0.8-10.1,2.4c-1.7,0.9-3.3,2-4.6,3.3v-4.6h-14v73.4h13.9
				v-26.3c1.4,1.3,2.9,2.4,4.7,3.3c3,1.5,6.4,2.3,10.1,2.3c4.8,0,9.1-1.2,12.9-3.5c3.8-2.4,6.8-5.6,8.9-9.6
				c2.2-4.1,3.3-8.6,3.3-13.7c0-5.1-1.1-9.7-3.2-13.8C417.2,76.3,414.2,73.1,410.4,70.8z M406.5,101.3c-1.1,2.1-2.6,3.8-4.5,5
				c-1.9,1.2-4.2,1.8-6.8,1.8s-4.9-0.6-6.9-1.8c-2-1.2-3.6-2.9-4.6-5c-1-2.1-1.5-4.5-1.5-7.2c0-2.7,0.5-5.1,1.7-7.2
				c1.1-2.1,2.6-3.7,4.6-4.9c2-1.2,4.2-1.8,6.7-1.8c2.6,0,4.9,0.6,6.9,1.8c1.9,1.2,3.4,2.9,4.5,4.9s1.7,4.5,1.7,7.2
				C408.1,96.8,407.6,99.2,406.5,101.3z"/>
			<path class="st4" d="M466.8,70.7c-4.2-2.4-8.9-3.5-14.2-3.5c-5.2,0-9.9,1.2-14.1,3.6s-7.5,5.6-9.9,9.6c-2.4,4-3.6,8.6-3.6,13.7
				c0,5.1,1.2,9.8,3.6,13.9c2.4,4.1,5.7,7.4,9.9,9.7c4.2,2.4,8.9,3.6,14.1,3.6c5.3,0,10-1.2,14.2-3.6c4.2-2.4,7.5-5.7,10-9.8
				s3.6-8.7,3.6-13.8s-1.2-9.6-3.7-13.7C474.3,76.2,471,73,466.8,70.7z M464.4,101.3c-1.1,2.1-2.7,3.7-4.7,4.9c-2,1.2-4.4,1.8-7,1.8
				c-2.6,0-4.9-0.6-6.9-1.8c-2-1.2-3.5-2.8-4.7-4.9c-1.1-2.1-1.7-4.5-1.7-7.2s0.5-5.1,1.7-7.2c1.1-2.1,2.7-3.7,4.7-4.9
				s4.3-1.8,6.9-1.8c2.6,0,4.9,0.6,6.9,1.8c2,1.2,3.5,2.8,4.7,4.9s1.8,4.5,1.8,7.2C466,96.8,465.5,99.2,464.4,101.3z"/>
			<polygon class="st4" points="482.7,80.5 505,80.5 480.7,112 480.7,120 524.5,120 524.5,107.8 500.9,107.8 525.1,76.3 525.1,68.3 
				482.7,68.3 			"/>
			<rect x="531" y="68.3" class="st4" width="14.2" height="51.7"/>
			<path class="st4" d="M538.2,43.9c-2.3,0-4.2,0.8-5.7,2.4c-1.5,1.6-2.3,3.5-2.3,5.7c0,2.3,0.8,4.2,2.3,5.7
				c1.5,1.5,3.4,2.3,5.7,2.3c2.4,0,4.3-0.8,5.7-2.3c1.5-1.5,2.2-3.4,2.2-5.7c0-2.2-0.7-4.1-2.2-5.7
				C542.5,44.7,540.6,43.9,538.2,43.9z"/>
			<polygon class="st4" points="576.1,46.8 562.1,46.8 562.1,68.3 550,68.3 550,80.6 562.1,80.6 562.1,120 576.1,120 576.1,80.6 
				588.2,80.6 588.2,68.3 576.1,68.3 			"/>
			<path class="st4" d="M639.2,76.8c-1.7-3-4.1-5.3-7.1-7c-3-1.7-6.5-2.5-10.4-2.5s-7.4,0.9-10.5,2.6c-1.6,0.9-3,2-4.3,3.3V42.6h-14
				V120h14V90.3c0-2,0.5-3.8,1.3-5.4s2.1-2.8,3.7-3.7c1.6-0.9,3.3-1.3,5.3-1.3c3,0,5.5,1,7.4,2.9s2.9,4.4,2.9,7.5V120h14.1V87.1
				C641.8,83.2,640.9,79.8,639.2,76.8z"/>
		</g>
	</g>
</g>
</svg>
