<?xml version="1.0" encoding="utf-8"?>
<!-- Generator: Adobe Illustrator 27.3.1, SVG Export Plug-In . SVG Version: 6.00 Build 0)  -->
<svg version="1.1" id="Calque_1" xmlns="http://www.w3.org/2000/svg" xmlns:xlink="http://www.w3.org/1999/xlink" x="0px" y="0px"
	 viewBox="0 0 726.79 207.51" style="enable-background:new 0 0 726.79 207.51;" xml:space="preserve">
<style type="text/css">
	.st0{fill:#0B1143;}
	.st1{fill:url(#SVGID_1_);}
	.st2{fill:url(#SVGID_00000137823269881002099670000010547938805893047171_);}
	.st3{opacity:0.55;fill:url(#SVGID_00000082356540180231231500000000649942718037558432_);}
	.st4{opacity:0.55;fill:url(#SVGID_00000127025382788656295300000018297560100621530543_);}
	.st5{fill:url(#SVGID_00000106831573400821159530000009933302294351486115_);}
	.st6{opacity:0.55;fill:url(#SVGID_00000069379795217820567470000014278355648542897054_);}
	.st7{fill:url(#SVGID_00000098903282824202958780000016585367867267277479_);}
	.st8{fill:url(#SVGID_00000121990542195257336800000003535000762415560854_);}
	.st9{fill:url(#SVGID_00000152983249406705486680000000584089556436727940_);}
	.st10{fill:url(#SVGID_00000023257754550924617200000007586699606666581671_);}
	.st11{fill:url(#SVGID_00000061439513060900506720000018444870346335718795_);}
	.st12{fill:url(#SVGID_00000078757130170285858470000006717862227524633733_);}
	.st13{fill:url(#SVGID_00000072265683119721892330000006575366001039042466_);}
	.st14{fill:url(#SVGID_00000125563381169426803210000011624515093788935349_);}
	.st15{fill:url(#SVGID_00000142155349547220205140000001614400407495618203_);}
	.st16{opacity:0.55;fill:url(#SVGID_00000135669553598580183010000002517989716697850245_);}
	.st17{fill:#FFFFFF;}
	.st18{fill:#383838;}
	.st19{fill:url(#SVGID_00000162325723218170097720000009910984784835392907_);}
	.st20{fill:url(#SVGID_00000130647901898491565750000001673113126274326971_);}
	.st21{fill:url(#SVGID_00000014618425341681834080000005938961414462744456_);}
	.st22{fill:url(#SVGID_00000027575121240060203500000008930905323607128736_);}
	.st23{fill:url(#SVGID_00000006667417847009506260000008950177763591886220_);}
	.st24{fill:url(#SVGID_00000120559404911414005510000012666466218262614935_);}
	.st25{fill:url(#SVGID_00000008149737611730860670000011731523353056057788_);}
	.st26{fill:url(#SVGID_00000149367801385722702880000010562440335938039463_);}
	.st27{fill:url(#SVGID_00000039824858598550016120000011145398123746585757_);}
	.st28{fill:url(#SVGID_00000157289250168263707510000016809924636670291608_);}
	.st29{fill:url(#SVGID_00000108281150803619429830000013385861152830941569_);}
	.st30{fill:url(#SVGID_00000137827447196576206150000002591503345608606606_);}
	.st31{fill:url(#SVGID_00000179639764953258963880000006961801049815582115_);}
	.st32{fill:url(#SVGID_00000003074366017003515110000013798917182853197754_);}
	.st33{fill:url(#SVGID_00000140003164832293160320000003474769534408100502_);}
	.st34{fill:url(#SVGID_00000114067290899284732320000006915177648051431614_);}
	.st35{fill:url(#SVGID_00000114756838615888302340000010904212957759260856_);}
	.st36{fill:url(#SVGID_00000178182708035620364870000016378089840310886287_);}
	.st37{fill:url(#SVGID_00000070104130385229313140000003103320073575619500_);}
	.st38{fill:url(#SVGID_00000109019671911871621890000005411076624355837615_);}
	.st39{fill:url(#SVGID_00000124852939185662136270000004389839508075880383_);}
	.st40{fill:url(#SVGID_00000066503834708795983680000004778528674916932772_);}
	.st41{fill:url(#SVGID_00000143610823184878644590000005906516983010236863_);}
	.st42{fill:url(#SVGID_00000115491109485785499300000014577877076567266210_);}
	.st43{fill:url(#SVGID_00000160148294269032911160000005369245601906782348_);}
	.st44{fill:url(#SVGID_00000003095781256286499800000010731233497792858254_);}
	.st45{fill:url(#SVGID_00000030448558002461068090000010230053166157881263_);}
	.st46{fill:url(#SVGID_00000009550778891136019630000012075629197158971577_);}
	.st47{fill:url(#SVGID_00000096767855270054899900000002709988026201002419_);}
	.st48{fill:url(#SVGID_00000130610371156371301280000008953783571526970758_);}
	.st49{fill:url(#SVGID_00000127040666024158934980000017242557443385461168_);}
	.st50{fill:url(#SVGID_00000117641912731384671000000006004562130211486640_);}
	.st51{fill:url(#SVGID_00000061461085792977883720000013745004118433366409_);}
	.st52{fill:url(#SVGID_00000094582170364802960260000004809812557827243942_);}
	.st53{fill:url(#SVGID_00000022543894743974564040000003659724440013900218_);}
	.st54{fill:url(#SVGID_00000070108188447145659800000005498386725272503690_);}
	.st55{fill:url(#SVGID_00000117646459970594435420000010680345595301325473_);}
	.st56{fill:url(#SVGID_00000065761485764874370230000002906941599517472946_);}
	.st57{fill:url(#SVGID_00000002374908863621218370000017698873869930617487_);}
	.st58{fill:url(#SVGID_00000055696919999506586510000000759565801195221659_);}
</style>
<g>
	<linearGradient id="SVGID_1_" gradientUnits="userSpaceOnUse" x1="84.339" y1="72.3923" x2="176.6407" y2="72.3923">
		<stop  offset="0" style="stop-color:#F4AB11"/>
		<stop  offset="0.1738" style="stop-color:#EE7C25"/>
		<stop  offset="0.351" style="stop-color:#E95536"/>
		<stop  offset="0.5258" style="stop-color:#E43543"/>
		<stop  offset="0.6949" style="stop-color:#E11F4C"/>
		<stop  offset="0.8559" style="stop-color:#E01252"/>
		<stop  offset="1" style="stop-color:#DF0D54"/>
	</linearGradient>
	<polygon class="st1" points="176.64,41.03 143.48,74.19 113.91,103.76 113.91,103.76 84.34,74.19 117.5,41.03 	"/>
	
		<linearGradient id="SVGID_00000119829823572575167380000008937278912665691276_" gradientUnits="userSpaceOnUse" x1="92.7657" y1="155.2778" x2="162.1193" y2="128.6554">
		<stop  offset="0.2877" style="stop-color:#88FC91"/>
		<stop  offset="0.4369" style="stop-color:#72EDA0"/>
		<stop  offset="0.6502" style="stop-color:#59DCB0"/>
		<stop  offset="0.8442" style="stop-color:#49D2BA"/>
		<stop  offset="1" style="stop-color:#44CEBE"/>
	</linearGradient>
	<polygon style="fill:url(#SVGID_00000119829823572575167380000008937278912665691276_);" points="176.64,166.48 117.5,166.48 
		84.34,133.33 113.91,103.76 113.91,103.76 	"/>
	
		<linearGradient id="SVGID_00000160877003667278538670000010221286678540050591_" gradientUnits="userSpaceOnUse" x1="42.1612" y1="41.3982" x2="84.6975" y2="82.475">
		<stop  offset="0.1602" style="stop-color:#098DD7"/>
		<stop  offset="0.4774" style="stop-color:#206DBE"/>
		<stop  offset="0.8369" style="stop-color:#3D449E"/>
	</linearGradient>
	
		<rect x="42.52" y="41.03" style="fill:url(#SVGID_00000160877003667278538670000010221286678540050591_);" width="41.82" height="41.82"/>
	
		<linearGradient id="SVGID_00000109750315371131364650000011669760235441969333_" gradientUnits="userSpaceOnUse" x1="37.0984" y1="155.6827" x2="87.5382" y2="136.3206">
		<stop  offset="0.1602" style="stop-color:#098DD7"/>
		<stop  offset="0.4774" style="stop-color:#206DBE"/>
		<stop  offset="0.8369" style="stop-color:#3D449E"/>
	</linearGradient>
	
		<rect x="42.52" y="124.67" style="fill:url(#SVGID_00000109750315371131364650000011669760235441969333_);" width="41.82" height="41.82"/>
	<g>
		<g>
			<polygon class="st0" points="261.97,90.29 245.69,90.29 226.95,113.99 226.95,64.59 212.93,64.59 212.93,142.01 226.95,142.01 
				226.95,116.78 245.8,142.01 262.93,142.01 241.66,114.89 			"/>
			<path class="st0" d="M302.39,92.65c-4.18-2.36-8.91-3.53-14.19-3.53c-5.21,0-9.9,1.2-14.08,3.59c-4.18,2.39-7.48,5.6-9.9,9.64
				c-2.43,4.03-3.64,8.58-3.64,13.65c0,5.14,1.21,9.76,3.64,13.87c2.43,4.11,5.73,7.35,9.9,9.74c4.18,2.39,8.87,3.59,14.08,3.59
				c5.28,0,10.03-1.19,14.24-3.59c4.21-2.39,7.53-5.66,9.96-9.8c2.43-4.14,3.64-8.74,3.64-13.81c0-5.07-1.23-9.64-3.69-13.71
				C309.88,98.21,306.56,95,302.39,92.65z M299.93,123.27c-1.11,2.07-2.68,3.71-4.71,4.93c-2.04,1.21-4.37,1.82-7.01,1.82
				c-2.57,0-4.86-0.61-6.85-1.82c-2-1.21-3.55-2.85-4.66-4.93c-1.11-2.07-1.66-4.46-1.66-7.17c0-2.71,0.55-5.1,1.66-7.17
				c1.11-2.07,2.66-3.69,4.66-4.87c2-1.18,4.28-1.77,6.85-1.77c2.64,0,4.94,0.59,6.91,1.77c1.96,1.18,3.53,2.8,4.71,4.87
				c1.18,2.07,1.77,4.46,1.77,7.17C301.59,118.81,301.03,121.2,299.93,123.27z"/>
			<path class="st0" d="M393.24,91.63c-3.07-1.61-6.53-2.41-10.39-2.41c-3.86,0-7.35,0.84-10.49,2.52c-2.5,1.33-4.62,3.09-6.37,5.26
				c-1.6-2.23-3.61-4.03-6.05-5.37c-2.93-1.61-6.18-2.41-9.74-2.41c-3.78,0-7.17,0.8-10.17,2.41c-1.61,0.86-3.03,1.92-4.28,3.16
				v-4.5h-14.03v51.72h14.03V111.6c0-2.07,0.44-3.82,1.34-5.25c0.89-1.43,2.07-2.52,3.53-3.27c1.46-0.75,3.12-1.12,4.98-1.12
				c2.78,0,5.1,0.84,6.96,2.52c1.86,1.68,2.78,4.02,2.78,7.01v30.52h14.13V111.6c0-2.07,0.44-3.82,1.34-5.25
				c0.89-1.43,2.07-2.52,3.53-3.27c1.46-0.75,3.16-1.12,5.09-1.12c2.71,0,5,0.84,6.85,2.52c1.86,1.68,2.78,4.02,2.78,7.01v30.52
				h14.24v-32.66c0-4.21-0.91-7.82-2.73-10.81C398.76,95.54,396.31,93.24,393.24,91.63z"/>
			<path class="st0" d="M452.94,92.75c-3.82-2.36-8.12-3.53-12.9-3.53c-3.71,0-7.07,0.79-10.07,2.36c-1.74,0.91-3.26,2.03-4.6,3.32
				v-4.6h-14.03v73.45h13.92v-26.25c1.37,1.31,2.92,2.44,4.71,3.34c3,1.5,6.35,2.25,10.07,2.25c4.78,0,9.06-1.18,12.85-3.53
				c3.78-2.36,6.76-5.57,8.94-9.64c2.18-4.07,3.26-8.64,3.26-13.71c0-5.14-1.07-9.74-3.21-13.81
				C459.73,98.32,456.75,95.11,452.94,92.75z M448.97,123.32c-1.11,2.11-2.62,3.77-4.55,4.98c-1.93,1.22-4.18,1.82-6.75,1.82
				s-4.87-0.61-6.91-1.82c-2.04-1.21-3.57-2.87-4.6-4.98c-1.04-2.1-1.55-4.51-1.55-7.23c0-2.71,0.55-5.1,1.66-7.17
				c1.11-2.07,2.64-3.71,4.6-4.93c1.96-1.21,4.19-1.82,6.69-1.82c2.64,0,4.93,0.61,6.85,1.82c1.93,1.21,3.44,2.86,4.55,4.93
				c1.11,2.07,1.66,4.46,1.66,7.17C450.63,118.81,450.08,121.22,448.97,123.32z"/>
			<path class="st0" d="M509.36,92.65c-4.18-2.36-8.91-3.53-14.19-3.53c-5.21,0-9.9,1.2-14.08,3.59c-4.18,2.39-7.48,5.6-9.9,9.64
				c-2.43,4.03-3.64,8.58-3.64,13.65c0,5.14,1.21,9.76,3.64,13.87c2.43,4.11,5.73,7.35,9.9,9.74c4.17,2.39,8.87,3.59,14.08,3.59
				c5.28,0,10.03-1.19,14.24-3.59c4.21-2.39,7.53-5.66,9.96-9.8c2.43-4.14,3.64-8.74,3.64-13.81c0-5.07-1.23-9.64-3.69-13.71
				C516.86,98.21,513.54,95,509.36,92.65z M506.9,123.27c-1.11,2.07-2.68,3.71-4.71,4.93c-2.04,1.21-4.37,1.82-7.01,1.82
				c-2.57,0-4.85-0.61-6.85-1.82c-2-1.21-3.55-2.85-4.66-4.93c-1.11-2.07-1.66-4.46-1.66-7.17c0-2.71,0.55-5.1,1.66-7.17
				c1.11-2.07,2.66-3.69,4.66-4.87c2-1.18,4.28-1.77,6.85-1.77c2.64,0,4.94,0.59,6.91,1.77c1.96,1.18,3.53,2.8,4.71,4.87
				c1.18,2.07,1.77,4.46,1.77,7.17C508.56,118.81,508.01,121.2,506.9,123.27z"/>
			<polygon class="st0" points="525.26,102.5 547.52,102.5 523.23,133.98 523.23,142.01 567.02,142.01 567.02,129.8 543.46,129.8 
				567.67,98.32 567.67,90.29 525.26,90.29 			"/>
			<rect x="573.55" y="90.29" class="st0" width="14.24" height="51.72"/>
			<path class="st0" d="M580.73,65.88c-2.29,0-4.18,0.79-5.67,2.36c-1.5,1.57-2.25,3.46-2.25,5.67c0,2.29,0.75,4.2,2.25,5.73
				c1.5,1.54,3.39,2.3,5.67,2.3c2.36,0,4.26-0.77,5.73-2.3c1.46-1.53,2.19-3.44,2.19-5.73c0-2.21-0.73-4.1-2.19-5.67
				C584.99,66.66,583.08,65.88,580.73,65.88z"/>
			<polygon class="st0" points="618.63,68.77 604.6,68.77 604.6,90.29 592.5,90.29 592.5,102.6 604.6,102.6 604.6,142.01 
				618.63,142.01 618.63,102.6 630.73,102.6 630.73,90.29 618.63,90.29 			"/>
			<path class="st0" d="M681.7,98.75c-1.71-3-4.07-5.34-7.07-7.01c-3-1.68-6.46-2.52-10.39-2.52c-3.93,0-7.43,0.86-10.49,2.57
				c-1.62,0.9-3.04,2-4.28,3.26V64.59h-14.03v77.42h14.03v-29.66c0-2,0.45-3.8,1.34-5.41c0.89-1.61,2.12-2.84,3.69-3.69
				c1.57-0.86,3.35-1.28,5.35-1.28c3,0,5.46,0.96,7.39,2.89c1.93,1.93,2.89,4.43,2.89,7.49v29.66h14.13v-32.87
				C684.27,105.21,683.41,101.75,681.7,98.75z"/>
		</g>
	</g>
</g>
</svg>
